<?xml version="1.0" encoding="utf-8"?>
<!-- Generator: Adobe Illustrator 18.0.0, SVG Export Plug-In . SVG Version: 6.00 Build 0)  -->
<!DOCTYPE svg PUBLIC "-//W3C//DTD SVG 1.1//EN" "http://www.w3.org/Graphics/SVG/1.1/DTD/svg11.dtd">
<svg version="1.1" id="Capa_1" xmlns="http://www.w3.org/2000/svg" xmlns:xlink="http://www.w3.org/1999/xlink" x="0px" y="0px"
	 viewBox="117.2 119.7 324.2 404" enable-background="new 117.2 119.7 324.2 404" xml:space="preserve">
<g>
	<path fill="#FDFDFD" d="M430.8,279.9l-13.6-78.4c-31.2-170.6-39.5-19.4-82.2-30l-61,51c-27.1,12.8-49.2,35.6-60.4,66
		c-17.9,48.7-1.3,101.7,37.2,132.4C188,480.7,117.2,523.7,117.2,523.7c71.7-27.4,121.4-58.4,155.7-88.9c3.4,1.6,7.1,3.1,10.7,4.6
		c61,22.3,128.5-9,150.8-70.1C445.4,339,443.1,307.1,430.8,279.9z M402.9,368.3c-16.7,45.6-67.1,68.9-112.6,52.3
		c-0.7-0.2-1.3-0.5-2-0.8c76.1-78.4,57.4-150.8,57.4-150.8c-4.6,47.1-39.4,95.7-80.4,137.5c-28.4-23-40.5-62.2-27.2-98.4
		c8.2-22.6,24.9-39.7,45.1-49.2l45.6-38.2c31.8,8,38.1-105,61.4,22.5l10.2,58.6C409.6,321.9,411.1,345.7,402.9,368.3z"/>
</g>
</svg>
